<svg width="19" height="16" viewBox="0 0 19 16" fill="none" xmlns="http://www.w3.org/2000/svg">
<path d="M1.66667 2.58333V1.3275C1.66819 1.10865 1.75575 0.899181 1.91043 0.744348C2.0651 0.589515 2.27448 0.501746 2.49333 0.5H17.5067C17.9633 0.5 18.3333 0.870833 18.3333 1.3275V14.6725C18.3318 14.8914 18.2443 15.1008 18.0896 15.2557C17.9349 15.4105 17.7255 15.4983 17.5067 15.5H2.49333C2.27401 15.4998 2.06375 15.4125 1.90874 15.2573C1.75374 15.1022 1.66667 14.8918 1.66667 14.6725V13.8333H16.6667V4.08333L10 10.0833L1.66667 2.58333ZM0 6.33333H4.16667V8H0V6.33333ZM0 10.5H6.66667V12.1667H0V10.5Z" fill="white"/>
</svg>
