<svg width="52" height="56" viewBox="0 0 52 56" fill="none" xmlns="http://www.w3.org/2000/svg">
<mask id="mask0_903_2" style="mask-type:alpha" maskUnits="userSpaceOnUse" x="0" y="0" width="52" height="52">
<circle cx="26" cy="26" r="26" fill="#EDEDED"/>
</mask>
<g mask="url(#mask0_903_2)">
<path d="M15.1056 14.8477C15.1056 14.8477 15.7731 14.2367 17.0436 15.343L17.6358 14.4278C17.6358 14.4278 16.2065 13.2946 15.1056 14.8477Z" fill="#2C3E50"/>
<path d="M17.4339 12.1641C17.4339 12.1641 16.6425 13.1438 17.7811 14.2609L17.014 15.0361C17.014 15.0361 15.259 12.8827 17.4339 12.1641Z" fill="#2C3E50"/>
<path d="M14 40C14.8594 38.3409 16.1426 37.1027 17.6365 36.491L22.9605 34H28.0423L33.3662 36.491C34.8591 37.1034 36.1413 38.3415 37 40H14Z" fill="#C8C8C8"/>
<path d="M32.2328 50.6636H40.2755C40.2755 49.2908 40.184 45.369 40.184 45.369C39.713 37.1459 33.724 35.8539 33.724 35.8539C29.0512 34.7207 31.5975 41.9506 31.5975 41.9506C31.471 43.6921 31.7294 47.9988 32.2328 50.6636Z" fill="#C8C8C8"/>
<path d="M28.8574 29.041H22.0339V35.6922H28.8574V29.041Z" fill="#C8C8C8"/>
<path d="M28.8547 32.1338V29.041H22.0259V30.578C23.9773 32.193 26.3326 32.3975 28.8547 32.1338Z" fill="#AEAEAE"/>
<path d="M36.213 52.4806C36.3421 47.975 36.3017 46.7302 36.2695 45.1979C36.1996 41.7748 35.6187 38.8793 33.8224 36.3356L28.9552 34.3398C28.9552 34.3398 29.9771 36.5893 25.5105 36.5893C25.5105 36.5893 22.5687 36.4472 22.1411 34.3398L17.204 36.3356C17.204 36.3356 12.9902 37.6379 12.2642 43.236L14.7435 48.9695L14.6547 52.4908L36.213 52.4806Z" fill="#2C3E50"/>
<path d="M34.1572 20.7265C34.351 19.1976 34.0253 17.7333 34.0415 16.2233C34.0415 15.2112 33.8558 13.685 32.5961 13.5585C30.8545 13.3782 30.3162 16.3902 30.2139 17.693C30.0713 19.4937 30.5181 21.4371 30.8626 23.1948C30.9891 23.83 30.9757 25.1005 31.6917 25.4073C32.3027 25.6765 32.9271 25.052 33.2421 24.5998C33.9957 23.4828 33.9957 22.0077 34.1572 20.7265Z" fill="#2C3E50"/>
<path d="M32.8653 28.115C32.1762 30.8067 30.9596 31.5577 30.9596 31.5577L29.3446 31.8753C28.3944 31.7569 26.7794 31.3854 26.7794 31.3854C23.0568 30.1203 21.9801 29.7704 21.396 28.3654C21.3772 28.2954 18.4702 18.1962 18.4702 18.1962C17.9884 13.0012 23.4337 11.9219 24.2546 11.7846C25.0621 11.5989 30.2463 10.1696 31.7752 15.1465C33.1869 19.3166 33.561 23.7678 32.8653 28.115V28.115Z" fill="#C8C8C8"/>
<path d="M34.5745 10.1212C34.8705 11.7362 34.5933 13.9676 33.3444 14.9986C31.9985 16.1156 30.8223 15.8061 29.1884 16.1748C27.49 16.5517 25.7511 16.7132 24.0446 17.0308C22.8495 17.2623 21.4687 17.3968 20.9196 18.6646C20.1923 20.4043 20.0589 22.3352 20.54 24.1584C20.9465 25.5203 21.0784 26.85 21.5171 28.6131C20.4686 27.689 19.5473 26.63 18.777 25.4638C18.0072 24.118 18.0072 24.118 17.1404 21.7547C16.6317 20.3765 16.193 19.1626 16.1257 17.7414C16.0422 15.9057 16.9332 15.1062 17.9103 13.4212C18.7425 11.8922 20.1423 10.7515 21.8078 10.245C21.8078 10.245 30.3458 10.7269 30.187 8.77539C30.187 8.77539 32.2354 9.31373 31.8451 10.6596C31.8451 10.6596 33.9984 10.2693 33.5355 8.77539C33.7969 8.90961 34.0255 9.09979 34.2051 9.3324C34.3847 9.56502 34.5108 9.83435 34.5745 10.1212V10.1212Z" fill="#2C3E50"/>
<path d="M20.882 23.8056C20.882 23.8056 19.9614 21.803 18.516 22.9981C18.516 22.9981 17.8592 23.5095 18.6694 24.8527C18.6694 24.8527 19.8457 26.7799 21.2561 25.7113L20.882 23.8056Z" fill="#C8C8C8"/>
<path d="M20.7366 19.1328C20.7366 19.1328 20.7366 22.7208 21.4014 24.6238L20.7043 24.7611C20.7043 24.7611 20.3355 22.3009 19.0651 22.2713L20.7366 19.1328Z" fill="#2C3E50"/>
<path d="M19.0462 52.6256H11.5283C11.5283 52.6256 11.5552 46.9164 11.5579 46.7899C11.5885 45.0298 11.7505 43.2745 12.0424 41.5385C12.4946 39.0648 13.6951 36.8738 16.3491 36.2439C17.5577 35.9586 18.6317 36.6907 19.2884 37.684C19.2777 37.684 20.4728 43.0835 19.0462 52.6256Z" fill="#C8C8C8"/>
</g>
</svg>
